<svg width="150" height="150" viewBox="0 0 150 150" fill="none" xmlns="http://www.w3.org/2000/svg">
<g clip-path="url(#clip0)">
<path d="M75.9413 44.6402H66.2234C63.8344 44.6402 61.8975 42.7035 61.8975 40.3143V30.5966C61.8975 28.2075 63.8342 26.2706 66.2234 26.2706H75.9413C78.3303 26.2706 80.2672 28.2073 80.2672 30.5966V40.3144C80.267 42.7035 78.3303 44.6402 75.9413 44.6402Z" fill="#FF7DA7"/>
<path d="M60.6305 40.527L53.7589 47.3986C52.0696 49.088 49.3305 49.088 47.6413 47.3986L40.7697 40.527C39.0803 38.8376 39.0803 36.0988 40.7697 34.4094L47.6413 27.5378C49.3307 25.8484 52.0696 25.8484 53.7589 27.5378L60.6305 34.4094C62.3197 36.0986 62.3197 38.8376 60.6305 40.527Z" fill="#FF7DA7"/>
<path d="M76.761 105.729H43.0086C36.795 105.729 31.7578 100.692 31.7578 94.4785V45.9595H88.0118V94.4785C88.0118 100.692 82.9746 105.729 76.761 105.729Z" fill="#CED0DA"/>
<path d="M44.4151 95.8849C42.2792 95.8849 40.5476 94.1534 40.5476 92.0175V58.7171C40.5476 56.5812 42.2792 54.8496 44.4151 54.8496C46.551 54.8496 48.2825 56.5812 48.2825 58.7171V92.0175C48.2825 94.1534 46.551 95.8849 44.4151 95.8849Z" fill="#8289A6"/>
<path d="M59.8848 95.8849C57.7489 95.8849 56.0173 94.1534 56.0173 92.0175V58.7171C56.0173 56.5812 57.7489 54.8496 59.8848 54.8496C62.0207 54.8496 63.7522 56.5812 63.7522 58.7171V92.0175C63.7522 94.1534 62.0207 95.8849 59.8848 95.8849Z" fill="#8289A6"/>
<path d="M75.3548 95.8849C73.2189 95.8849 71.4873 94.1534 71.4873 92.0175V58.7171C71.4873 56.5812 73.2189 54.8496 75.3548 54.8496C77.4907 54.8496 79.2222 56.5812 79.2222 58.7171V92.0175C79.2222 94.1534 77.4907 95.8849 75.3548 95.8849Z" fill="#8289A6"/>
<path d="M34.5706 38.2246H85.1991V45.9595H34.5706V38.2246Z" fill="#F4F4F7"/>
<path d="M89.8534 64.4396L88.0659 53.9105C90.0956 51.8808 93.3861 51.8808 95.4159 53.9105C97.4456 55.9402 100.736 55.94 102.766 53.9105C104.795 51.8808 108.086 51.8808 110.116 53.9105L107.618 64.4396H89.8534Z" fill="#5D72D5"/>
<path d="M107.617 64.4396H89.8533L80.7827 83.3258C75.7977 93.705 83.3621 105.729 94.8762 105.729H102.594C114.109 105.729 121.673 93.705 116.688 83.3258L107.617 64.4396Z" fill="#5D72D5"/>
<path d="M44.4149 53.0917C41.3131 53.0917 38.7896 55.6152 38.7896 58.7171V92.0175C38.7896 95.1194 41.3131 97.6429 44.4149 97.6429C47.5168 97.6429 50.0403 95.1194 50.0403 92.0175V58.7171C50.0403 55.6152 47.5168 53.0917 44.4149 53.0917ZM46.5245 92.0175C46.5245 93.1807 45.5782 94.127 44.4149 94.127C43.2517 94.127 42.3054 93.1807 42.3054 92.0175V58.7171C42.3054 57.5538 43.2517 56.6075 44.4149 56.6075C45.5782 56.6075 46.5245 57.5538 46.5245 58.7171V92.0175Z" fill="black"/>
<path d="M59.8849 53.0917C56.783 53.0917 54.2595 55.6152 54.2595 58.7171V92.0175C54.2595 95.1194 56.783 97.6429 59.8849 97.6429C62.9868 97.6429 65.5103 95.1194 65.5103 92.0175V58.7171C65.5103 55.6152 62.9868 53.0917 59.8849 53.0917ZM61.9944 92.0175C61.9944 93.1807 61.0481 94.127 59.8849 94.127C58.7217 94.127 57.7754 93.1807 57.7754 92.0175V58.7171C57.7754 57.5538 58.7217 56.6075 59.8849 56.6075C61.0481 56.6075 61.9944 57.5538 61.9944 58.7171V92.0175Z" fill="black"/>
<path d="M118.272 82.5648L109.472 64.2399L111.826 54.3164C111.967 53.7229 111.79 53.0988 111.359 52.6676C110.045 51.3539 108.298 50.6305 106.441 50.6305C104.583 50.6305 102.836 51.3539 101.523 52.6676C100.873 53.3172 100.009 53.6749 99.0906 53.6749C98.1719 53.6749 97.3082 53.3172 96.6588 52.6676C95.3451 51.3539 93.5986 50.6305 91.7407 50.6305C91.0637 50.6305 90.4016 50.7277 89.7698 50.9134V45.9595C89.7698 44.9886 88.9828 44.2016 88.0119 44.2016H86.9571V38.2246C86.9571 37.2537 86.1701 36.4667 85.1992 36.4667H82.0251V30.5964C82.0251 27.2417 79.2959 24.5127 75.9414 24.5127H66.2235C62.8688 24.5127 60.1396 27.2419 60.1396 30.5964V31.4321L55.0021 26.2945C53.8529 25.1456 52.3251 24.5127 50.7002 24.5127C49.0752 24.5127 47.5474 25.1456 46.3982 26.2945L39.5266 33.1661C38.6197 34.0732 38.0375 35.2324 37.8309 36.4667H34.5706C33.5997 36.4667 32.8127 37.2537 32.8127 38.2246V44.2016H31.7579C30.787 44.2016 30 44.9886 30 45.9595V94.4786C30 101.652 35.8356 107.487 43.0087 107.487H76.7611C79.8011 107.487 82.7525 106.403 85.0746 104.477C87.9113 106.415 91.3035 107.487 94.8763 107.487H102.594C108.61 107.487 114.113 104.447 117.316 99.3558C120.519 94.2641 120.877 87.987 118.272 82.5648ZM91.7407 54.1462C92.6594 54.1462 93.523 54.504 94.1726 55.1535C95.4863 56.4671 97.2328 57.1906 99.0906 57.1906C100.948 57.1906 102.695 56.4671 104.009 55.1535C104.658 54.504 105.522 54.1462 106.441 54.1462C107.048 54.1462 107.632 54.3029 108.146 54.597L106.228 62.6817H91.3379L89.9718 54.6344C90.5006 54.3162 91.1076 54.1462 91.7407 54.1462ZM66.2235 28.0286H75.9414C77.3574 28.0286 78.5092 29.1805 78.5092 30.5964V36.4667H63.6553V30.5964C63.6555 29.1805 64.8075 28.0286 66.2235 28.0286ZM42.0129 35.6524L48.8845 28.7808C49.3695 28.2958 50.0143 28.0286 50.7002 28.0286C51.386 28.0286 52.031 28.2956 52.516 28.7808L59.3874 35.6524C59.6239 35.8887 59.8056 36.1668 59.9327 36.4667H41.4674C41.5945 36.1666 41.7764 35.8887 42.0129 35.6524ZM43.0087 103.971C37.7743 103.971 33.5159 99.713 33.5159 94.4786V47.7175H51.9742C52.9451 47.7175 53.7321 46.9304 53.7321 45.9595C53.7321 44.9886 52.9451 44.2016 51.9742 44.2016H36.3286V39.9825H83.4413V44.2016H67.7956C66.8247 44.2016 66.0377 44.9886 66.0377 45.9595C66.0377 46.9304 66.8247 47.7175 67.7956 47.7175H86.254V67.8736L80.9801 78.8544V58.7172C80.9801 55.6153 78.4566 53.0918 75.3548 53.0918C72.2529 53.0918 69.7294 55.6153 69.7294 58.7172V92.0176C69.7294 95.1195 72.2529 97.643 75.3548 97.643C76.6127 97.643 77.7756 97.2278 78.7135 96.5274C79.1032 97.5001 79.5824 98.4471 80.1541 99.3559C80.7956 100.376 81.5307 101.311 82.3424 102.159C80.7337 103.336 78.8047 103.972 76.7609 103.972H43.0087V103.971ZM77.4643 58.717V92.0174C77.4643 93.1807 76.518 94.127 75.3548 94.127C74.1915 94.127 73.2452 93.1807 73.2452 92.0174V58.717C73.2452 57.5538 74.1915 56.6075 75.3548 56.6075C76.518 56.6075 77.4643 57.554 77.4643 58.717ZM114.34 97.4837C111.785 101.546 107.394 103.971 102.594 103.971H94.8763C90.0769 103.971 85.6858 101.546 83.1303 97.4837C80.5748 93.4213 80.2895 88.4131 82.3673 84.0869L90.9592 66.1978H106.512L115.103 84.087C117.181 88.4131 116.896 93.4213 114.34 97.4837Z" fill="black"/>
<path d="M59.8849 47.7175C60.3472 47.7175 60.8008 47.5294 61.1278 47.2025C61.4547 46.8755 61.6428 46.4219 61.6428 45.9596C61.6428 45.4973 61.4547 45.0437 61.1278 44.7167C60.8008 44.3898 60.3472 44.2017 59.8849 44.2017C59.4226 44.2017 58.969 44.3898 58.642 44.7167C58.3151 45.0437 58.127 45.4973 58.127 45.9596C58.127 46.4219 58.3151 46.8755 58.642 47.2025C58.969 47.5294 59.4226 47.7175 59.8849 47.7175Z" fill="black"/>
</g>
<circle cx="72" cy="71.25" r="67" stroke="#8289A6" stroke-dasharray="4 10"/>
<circle cx="75" cy="75" r="74.5" stroke="#8289A6" stroke-dasharray="4 10"/>
<defs>
<clipPath id="clip0">
<rect width="90" height="90" fill="white" transform="translate(30 21)"/>
</clipPath>
</defs>
</svg>
