<svg width="502" height="496" viewBox="0 0 502 496" fill="none" xmlns="http://www.w3.org/2000/svg">
<path d="M232.47 495.728L311.635 266.481L430.229 355.325L232.47 495.728Z" fill="white"/>
<path d="M251 421C389.623 421 502 326.756 502 210.5C502 94.2441 389.623 0 251 0C112.377 0 0 94.2441 0 210.5C0 326.756 112.377 421 251 421Z" fill="white"/>
<path d="M329.785 344.264C331.119 337.958 331.997 331.527 332.419 324.971C333.173 317.918 332.972 311.486 331.816 305.675C330.992 299.367 329.089 294.136 326.105 289.984C323.039 285.416 318.519 282.216 312.546 280.385C300.598 276.721 289.815 271.316 280.195 264.169C270.908 256.524 264.984 246.268 262.424 233.402C260.855 225.516 260.822 217.757 262.323 210.123C263.825 202.489 266.57 195.687 270.56 189.715C274.882 183.246 280.282 177.857 286.76 173.548C293.237 169.239 300.419 166.3 308.305 164.731C324.077 161.593 338.473 164.554 351.493 173.613C364.514 182.672 373.008 195.005 376.976 210.612C381.524 226.966 382.338 242.984 379.417 258.667C376.829 273.851 372.666 287.624 366.927 299.984C361.603 312.261 355.908 322.671 349.841 331.213C343.691 339.34 339.37 344.73 336.878 347.384C335.55 347.216 334.389 346.8 333.393 346.135C331.07 345.303 329.868 344.679 329.785 344.264Z" fill="#455CC7"/>
<path d="M176.342 97.9667C175.143 104.3 174.243 111.001 173.64 118.069C173.359 124.632 173.697 131.058 174.656 137.348C175.936 143.132 178.158 148.275 181.321 152.776C184.393 156.863 188.935 159.759 194.946 161.462C206.969 164.869 217.705 170.295 227.154 177.739C236.925 184.678 243.227 194.552 246.062 207.361C247.8 215.211 248 222.968 246.662 230.633C245.324 238.297 242.564 245.409 238.382 251.969C234.521 258.025 229.398 263.276 223.015 267.723C216.631 272.169 209.514 275.261 201.663 276.999C185.962 280.474 171.506 277.822 158.294 269.044C145.083 260.266 136.326 248.118 132.025 232.6C127.128 216.347 125.81 200.602 128.072 185.365C130.656 169.623 134.478 155.558 139.537 143.17C145.01 130.69 150.734 120.321 156.708 112.064C162.59 103.394 166.749 97.706 169.184 95C170.102 95.2303 171.272 95.6214 172.695 96.1735L174.965 97.6213C175.47 97.943 175.929 98.0581 176.342 97.9667Z" fill="#455CC7"/>
</svg>
