<svg width="194" height="40" viewBox="0 0 194 40" fill="none" xmlns="http://www.w3.org/2000/svg">
<g clip-path="url(#clip0)">
<path d="M62.5 15.7051H60V13.141L62.5 12.4999V11.0576C62.5 8.9636 62.9167 7.43583 63.75 6.47429C64.5833 5.51275 65.9829 5.03198 67.9487 5.03198C69.1026 5.03198 70.2564 5.17087 71.4103 5.44865V8.26916H68.6859C67.8312 8.26916 67.2436 8.47216 66.9231 8.87814C66.6239 9.28412 66.4744 9.94652 66.4744 10.8653V12.4999H71.1859V15.7051H66.4744V29.6794H62.5V15.7051ZM80.6984 29.8397C78.7966 29.8397 77.301 29.5833 76.2112 29.0704C75.1428 28.5363 74.3629 27.6495 73.8714 26.4102C73.4014 25.1495 73.1663 23.3761 73.1663 21.0897C73.1663 18.7606 73.3907 16.9657 73.8394 15.7051C74.3095 14.4444 75.068 13.5576 76.1151 13.0448C77.1833 12.532 78.6792 12.2756 80.6022 12.2756C82.2902 12.2756 83.6256 12.4465 84.6087 12.7884C85.5915 13.1303 86.3074 13.7286 86.7561 14.5833C87.2048 15.4166 87.4292 16.5918 87.4292 18.1089C87.4292 19.6901 86.9697 20.8226 86.051 21.5063C85.1535 22.1902 83.8394 22.532 82.1087 22.532H77.0766C77.1192 23.643 77.2689 24.5084 77.5253 25.1281C77.7817 25.7264 78.2304 26.1645 78.8715 26.4422C79.5338 26.72 80.4846 26.8589 81.724 26.8589H86.9163V29.1987C85.7625 29.4123 84.7261 29.5725 83.8074 29.6794C82.9099 29.7863 81.8736 29.8397 80.6984 29.8397ZM81.724 20.1281C82.4933 20.1281 83.0487 19.9786 83.3907 19.6794C83.7325 19.3803 83.9035 18.8568 83.9035 18.1089C83.9035 16.9978 83.6577 16.2286 83.1663 15.8012C82.6748 15.3739 81.8202 15.1602 80.6022 15.1602C79.6833 15.1602 78.9676 15.3098 78.4548 15.6089C77.9633 15.8867 77.6 16.3781 77.3651 17.0833C77.1513 17.7884 77.0446 18.8033 77.0446 20.1281H81.724ZM97.976 29.8397C96.0744 29.8397 94.5785 29.5833 93.4888 29.0704C92.4205 28.5363 91.6405 27.6495 91.149 26.4102C90.679 25.1495 90.4439 23.3761 90.4439 21.0897C90.4439 18.7606 90.6683 16.9657 91.117 15.7051C91.5872 14.4444 92.3457 13.5576 93.3926 13.0448C94.4611 12.532 95.9567 12.2756 97.8798 12.2756C99.568 12.2756 100.903 12.4465 101.886 12.7884C102.869 13.1303 103.585 13.7286 104.034 14.5833C104.482 15.4166 104.707 16.5918 104.707 18.1089C104.707 19.6901 104.247 20.8226 103.329 21.5063C102.431 22.1902 101.117 22.532 99.3862 22.532H94.3542C94.397 23.643 94.5465 24.5084 94.8029 25.1281C95.0593 25.7264 95.508 26.1645 96.149 26.4422C96.8115 26.72 97.7623 26.8589 99.0016 26.8589H104.194V29.1987C103.04 29.4123 102.004 29.5725 101.085 29.6794C100.188 29.7863 99.1513 29.8397 97.976 29.8397ZM99.0016 20.1281C99.7708 20.1281 100.326 19.9786 100.668 19.6794C101.01 19.3803 101.181 18.8568 101.181 18.1089C101.181 16.9978 100.935 16.2286 100.444 15.8012C99.9526 15.3739 99.0978 15.1602 97.8798 15.1602C96.9611 15.1602 96.2452 15.3098 95.7324 15.6089C95.241 15.8867 94.8777 16.3781 94.6426 17.0833C94.429 17.7884 94.3221 18.8033 94.3221 20.1281H99.0016ZM113.875 29.8717C111.781 29.8717 110.232 29.1987 109.228 27.8525C108.224 26.485 107.722 24.2841 107.722 21.2499C107.722 19.0704 107.925 17.3397 108.331 16.0576C108.737 14.7542 109.41 13.8033 110.35 13.2051C111.29 12.5854 112.572 12.2756 114.196 12.2756C115.713 12.2756 117.273 12.564 118.875 13.141V5.22429H122.85V29.6794H119.549L118.875 28.0128C118.32 28.5043 117.561 28.9422 116.6 29.3269C115.638 29.6902 114.73 29.8717 113.875 29.8717ZM115.19 26.6666C116.343 26.6666 117.572 26.2927 118.875 25.5448V15.9935C118.192 15.7585 117.593 15.5769 117.081 15.4486C116.568 15.3204 116.012 15.2563 115.414 15.2563C114.474 15.2563 113.737 15.4273 113.202 15.7692C112.668 16.0897 112.273 16.6666 112.017 17.4999C111.781 18.3333 111.664 19.5192 111.664 21.0576C111.664 22.5107 111.781 23.643 112.017 24.4551C112.251 25.2456 112.615 25.812 113.106 26.1538C113.619 26.4956 114.313 26.6666 115.19 26.6666ZM136.057 29.8717C134.989 29.8717 134.028 29.7115 133.173 29.391C132.339 29.0491 131.549 28.5897 130.801 28.0128L130.128 29.6794H126.827V5.22429H130.801V13.814C131.613 13.3653 132.468 13.0021 133.365 12.7243C134.284 12.4251 135.117 12.2756 135.865 12.2756C137.318 12.2756 138.493 12.5747 139.391 13.173C140.288 13.7713 140.94 14.7328 141.346 16.0576C141.773 17.361 141.987 19.0918 141.987 21.2499C141.987 24.1132 141.506 26.2712 140.545 27.7243C139.583 29.1559 138.087 29.8717 136.057 29.8717ZM134.615 26.6345C135.705 26.6345 136.538 26.1966 137.115 25.3204C137.713 24.4443 138.013 23.0235 138.013 21.0576C138.013 19.5192 137.863 18.344 137.564 17.532C137.286 16.72 136.901 16.1751 136.41 15.8974C135.94 15.6196 135.342 15.4807 134.615 15.4807C133.419 15.4807 132.147 15.8546 130.801 16.6025V25.5769C132.126 26.282 133.397 26.6345 134.615 26.6345ZM149.071 29.8717C147.767 29.8717 146.709 29.4871 145.897 28.7179C145.107 27.9273 144.712 26.8696 144.712 25.5448V24.1025C144.712 22.735 145.171 21.6453 146.09 20.8333C147.03 20.0213 148.419 19.6153 150.256 19.6153H155.16V18.1089C155.16 17.4679 155.053 16.9551 154.84 16.5704C154.626 16.1858 154.231 15.8974 153.654 15.7051C153.077 15.4914 152.244 15.3845 151.154 15.3845H145.962V13.0769C147.906 12.5427 150.15 12.2756 152.692 12.2756C154.872 12.2756 156.485 12.7029 157.532 13.5576C158.6 14.4123 159.135 15.844 159.135 17.8525V29.6794H156.026L155.353 27.8204C155.139 28.0128 154.701 28.2799 154.038 28.6217C153.376 28.9422 152.596 29.2307 151.699 29.4871C150.823 29.7435 149.947 29.8717 149.071 29.8717ZM150.994 27.0833C151.592 27.0833 152.383 26.9337 153.365 26.6345C154.37 26.314 154.968 26.1004 155.16 25.9935V21.5063L151.442 21.6986C149.583 21.8482 148.654 22.6709 148.654 24.1666V24.8717C148.654 25.641 148.867 26.1966 149.295 26.5384C149.744 26.8802 150.31 27.062 150.994 27.0833ZM169.643 29.8717C167.378 29.8717 165.626 29.2307 164.386 27.9487C163.168 26.6453 162.559 24.3802 162.559 21.1538C162.559 18.8674 162.837 17.0833 163.393 15.8012C163.948 14.4978 164.739 13.5897 165.764 13.0769C166.812 12.5427 168.136 12.2756 169.739 12.2756C171.79 12.2756 173.745 12.4999 175.604 12.9486V15.2243H170.925C169.856 15.2243 169.002 15.3952 168.361 15.7371C167.741 16.0576 167.271 16.6452 166.95 17.4999C166.651 18.3546 166.502 19.5726 166.502 21.1538C166.502 22.7136 166.651 23.9102 166.95 24.7435C167.271 25.5555 167.741 26.111 168.361 26.4102C169.002 26.7094 169.867 26.8589 170.957 26.8589H175.861V29.1025C175.027 29.3161 174.044 29.4979 172.912 29.6474C171.801 29.7969 170.711 29.8717 169.643 29.8717ZM178.785 5.22429H182.759V18.782H184.939L189.233 12.4999H193.304L187.855 20.5769L193.753 29.6794H189.682L184.875 22.3397H182.759V29.6794H178.785V5.22429Z" fill="white"/>
</g>
<g clip-path="url(#clip1)">
<path d="M18.5235 39.5003L24.8315 21.2336L34.2812 28.3128L18.5235 39.5003Z" fill="white"/>
<path d="M20 33.5458C31.0457 33.5458 40 26.0363 40 16.7729C40 7.50949 31.0457 0 20 0C8.9543 0 0 7.50949 0 16.7729C0 26.0363 8.9543 33.5458 20 33.5458Z" fill="white"/>
<path d="M26.2777 27.4314C26.384 26.929 26.454 26.4165 26.4876 25.8942C26.5477 25.3322 26.5316 24.8197 26.4395 24.3566C26.3739 23.854 26.2222 23.4372 25.9845 23.1063C25.7402 22.7424 25.38 22.4874 24.9041 22.3415C23.952 22.0495 23.0928 21.6189 22.3263 21.0494C21.5863 20.4402 21.1143 19.623 20.9103 18.5978C20.7853 17.9695 20.7826 17.3512 20.9022 16.7429C21.0219 16.1346 21.2406 15.5926 21.5586 15.1168C21.903 14.6013 22.3332 14.1719 22.8494 13.8286C23.3655 13.4852 23.9378 13.251 24.5661 13.126C25.8229 12.876 26.97 13.1119 28.0074 13.8338C29.0449 14.5556 29.7218 15.5383 30.0379 16.7819C30.4003 18.085 30.4652 19.3613 30.2324 20.611C30.0262 21.8208 29.6945 22.9183 29.2372 23.9032C28.813 24.8814 28.3592 25.7109 27.8758 26.3915C27.3857 27.0391 27.0414 27.4686 26.8429 27.6801C26.7371 27.6667 26.6446 27.6335 26.5652 27.5805C26.3801 27.5142 26.2843 27.4645 26.2777 27.4314Z" fill="#455CC7"/>
<path d="M14.0512 7.80621C13.9556 8.31086 13.8839 8.8448 13.8359 9.40799C13.8135 9.93094 13.8404 10.443 13.9168 10.9442C14.0188 11.405 14.1959 11.8148 14.4479 12.1735C14.6927 12.4991 15.0546 12.7299 15.5336 12.8656C16.4916 13.1371 17.347 13.5694 18.0999 14.1626C18.8785 14.7155 19.3807 15.5022 19.6066 16.5229C19.745 17.1484 19.761 17.7665 19.6544 18.3772C19.5478 18.9879 19.3278 19.5546 18.9946 20.0773C18.687 20.5599 18.2788 20.9783 17.7701 21.3326C17.2615 21.6869 16.6944 21.9332 16.0688 22.0717C14.8177 22.3486 13.6658 22.1373 12.6131 21.4379C11.5604 20.7384 10.8627 19.7705 10.5199 18.534C10.1297 17.2389 10.0247 15.9843 10.205 14.7702C10.4109 13.5159 10.7154 12.3952 11.1185 11.4081C11.5546 10.4136 12.0107 9.58743 12.4867 8.9295C12.9554 8.23867 13.2868 7.78544 13.4808 7.56982C13.554 7.58817 13.6472 7.61934 13.7606 7.66333L13.9415 7.77869C13.9817 7.80433 14.0183 7.8135 14.0512 7.80621Z" fill="#455CC7"/>
</g>
<defs>
<clipPath id="clip0">
<rect width="133.814" height="25" fill="white" transform="translate(60 5)"/>
</clipPath>
<clipPath id="clip1">
<rect width="40" height="39.5219" fill="white"/>
</clipPath>
</defs>
</svg>
