<svg width="30" height="30" viewBox="0 0 30 30" fill="none" xmlns="http://www.w3.org/2000/svg">
<g clip-path="url(#clip0)">
<path d="M26.875 16.875C28.5975 16.875 30 15.4725 30 13.75V3.75C30 2.02752 28.5975 0.625019 26.875 0.625019H23.125C22.4212 0.625019 21.7738 0.862501 21.25 1.25754V16.875H26.875Z" fill="#F14040"/>
<path d="M1.90735e-05 12.1875C1.90735e-05 12.9387 0.297499 13.6388 0.813768 14.155C0.23 14.7938 -0.067482 15.6501 0.0137882 16.5413C0.160038 18.13 1.59131 19.375 3.27377 19.375H10.995C10.6125 20.5363 10 22.665 10 24.375C10 27.0863 12.3038 29.375 13.75 29.375C15.0488 29.375 15.9763 28.6437 16.0163 28.6137C16.1638 28.495 16.25 28.315 16.25 28.125V23.8863L19.85 16.0875L20 16.0113L20 2.61375C18.9825 2.13375 17.695 1.875 16.875 1.875L5.40125 1.875C4.04 1.875 2.84873 2.79252 2.56877 4.05873C2.42504 4.71 2.50877 5.36626 2.795 5.93626C1.87127 6.40126 1.25 7.35253 1.25 8.43751C1.25 8.88001 1.35125 9.30376 1.54373 9.68749C0.620001 10.1525 1.90735e-05 11.1038 1.90735e-05 12.1875Z" fill="#F14040"/>
</g>
<defs>
<clipPath id="clip0">
<rect width="30" height="30" fill="white" transform="translate(30 30) rotate(-180)"/>
</clipPath>
</defs>
</svg>
