<svg width="30" height="30" viewBox="0 0 30 30" fill="none" xmlns="http://www.w3.org/2000/svg">
<g clip-path="url(#clip0)">
<path d="M3.12498 13.125C1.4025 13.125 0 14.5275 0 16.25V26.25C0 27.9725 1.4025 29.375 3.12498 29.375H6.87498C7.57875 29.375 8.22621 29.1375 8.74998 28.7425V13.125H3.12498Z" fill="#1ACAA0"/>
<path d="M30.0001 17.8126C30.0001 17.0614 29.7026 16.3614 29.1864 15.8451C29.7701 15.2064 30.0676 14.3501 29.9863 13.4589C29.8401 11.8701 28.4088 10.6251 26.7264 10.6251H19.0051C19.3876 9.46382 20.0001 7.33511 20.0001 5.6251C20.0001 2.91385 17.6964 0.625122 16.2501 0.625122C14.9514 0.625122 14.0238 1.35637 13.9839 1.38637C13.8364 1.50514 13.7501 1.68514 13.7501 1.8751V6.11384L10.1501 13.9126L10.0001 13.9888V27.3864C11.0176 27.8664 12.3051 28.1251 13.1251 28.1251H24.5989C25.9601 28.1251 27.1514 27.2076 27.4314 25.9414C27.5751 25.2901 27.4914 24.6339 27.2051 24.0639C28.1289 23.5989 28.7501 22.6476 28.7501 21.5626C28.7501 21.1201 28.6489 20.6964 28.4564 20.3126C29.3801 19.8476 30.0001 18.8964 30.0001 17.8126Z" fill="#1ACAA0"/>
</g>
<defs>
<clipPath id="clip0">
<rect width="30" height="30" fill="white"/>
</clipPath>
</defs>
</svg>
