<svg width="835" height="156" viewBox="0 0 835 156" fill="none" xmlns="http://www.w3.org/2000/svg">
<path d="M15.6 66.8H4.76837e-07V50.8L15.6 46.8V37.8C15.6 24.7333 18.2 15.2 23.4 9.20001C28.6 3.20001 37.3333 0.200012 49.6 0.200012C56.8 0.200012 64 1.06668 71.2 2.80001V20.4H54.2C48.8667 20.4 45.2 21.6667 43.2 24.2C41.3333 26.7333 40.4 30.8667 40.4 36.6V46.8H69.8V66.8H40.4V154H15.6V66.8ZM129.158 155C117.291 155 107.958 153.4 101.158 150.2C94.4911 146.867 89.6245 141.333 86.5578 133.6C83.6245 125.733 82.1578 114.667 82.1578 100.4C82.1578 85.8667 83.5578 74.6667 86.3578 66.8C89.2911 58.9333 94.0245 53.4 100.558 50.2C107.224 47 116.558 45.4 128.558 45.4C139.091 45.4 147.424 46.4667 153.558 48.6C159.691 50.7333 164.158 54.4667 166.958 59.8C169.758 65 171.158 72.3333 171.158 81.8C171.158 91.6667 168.291 98.7333 162.558 103C156.958 107.267 148.758 109.4 137.958 109.4H106.558C106.824 116.333 107.758 121.733 109.358 125.6C110.958 129.333 113.758 132.067 117.758 133.8C121.891 135.533 127.824 136.4 135.558 136.4H167.958V151C160.758 152.333 154.291 153.333 148.558 154C142.958 154.667 136.491 155 129.158 155ZM135.558 94.4C140.358 94.4 143.824 93.4667 145.958 91.6C148.091 89.7333 149.158 86.4667 149.158 81.8C149.158 74.8667 147.624 70.0667 144.558 67.4C141.491 64.7333 136.158 63.4 128.558 63.4C122.824 63.4 118.358 64.3333 115.158 66.2C112.091 67.9333 109.824 71 108.358 75.4C107.024 79.8 106.358 86.1333 106.358 94.4H135.558ZM236.97 155C225.104 155 215.77 153.4 208.97 150.2C202.304 146.867 197.437 141.333 194.37 133.6C191.437 125.733 189.97 114.667 189.97 100.4C189.97 85.8667 191.37 74.6667 194.17 66.8C197.104 58.9333 201.837 53.4 208.37 50.2C215.037 47 224.37 45.4 236.37 45.4C246.904 45.4 255.237 46.4667 261.37 48.6C267.504 50.7333 271.97 54.4667 274.77 59.8C277.57 65 278.97 72.3333 278.97 81.8C278.97 91.6667 276.104 98.7333 270.37 103C264.77 107.267 256.57 109.4 245.77 109.4H214.37C214.637 116.333 215.57 121.733 217.17 125.6C218.77 129.333 221.57 132.067 225.57 133.8C229.704 135.533 235.637 136.4 243.37 136.4H275.77V151C268.57 152.333 262.104 153.333 256.37 154C250.77 154.667 244.304 155 236.97 155ZM243.37 94.4C248.17 94.4 251.637 93.4667 253.77 91.6C255.904 89.7333 256.97 86.4667 256.97 81.8C256.97 74.8667 255.437 70.0667 252.37 67.4C249.304 64.7333 243.97 63.4 236.37 63.4C230.637 63.4 226.17 64.3333 222.97 66.2C219.904 67.9333 217.637 71 216.17 75.4C214.837 79.8 214.17 86.1333 214.17 94.4H243.37ZM336.183 155.2C323.116 155.2 313.449 151 307.183 142.6C300.916 134.067 297.783 120.333 297.783 101.4C297.783 87.8 299.049 77 301.583 69C304.116 60.8667 308.316 54.9333 314.183 51.2C320.049 47.3333 328.049 45.4 338.183 45.4C347.649 45.4 357.383 47.2 367.383 50.8V1.40002H392.183V154H371.583L367.383 143.6C363.916 146.667 359.183 149.4 353.183 151.8C347.183 154.067 341.516 155.2 336.183 155.2ZM344.383 135.2C351.583 135.2 359.249 132.867 367.383 128.2V68.6C363.116 67.1333 359.383 66 356.183 65.2C352.983 64.4 349.516 64 345.783 64C339.916 64 335.316 65.0667 331.983 67.2C328.649 69.2 326.183 72.8 324.583 78C323.116 83.2 322.383 90.6 322.383 100.2C322.383 109.267 323.116 116.333 324.583 121.4C326.049 126.333 328.316 129.867 331.383 132C334.583 134.133 338.916 135.2 344.383 135.2ZM474.598 155.2C467.932 155.2 461.932 154.2 456.598 152.2C451.398 150.067 446.465 147.2 441.798 143.6L437.598 154H416.998V1.40002H441.798V55C446.865 52.2 452.198 49.9333 457.798 48.2C463.532 46.3333 468.732 45.4 473.398 45.4C482.465 45.4 489.798 47.2667 495.398 51C500.998 54.7333 505.065 60.7333 507.598 69C510.265 77.1333 511.598 87.9333 511.598 101.4C511.598 119.267 508.598 132.733 502.598 141.8C496.598 150.733 487.265 155.2 474.598 155.2ZM465.598 135C472.398 135 477.598 132.267 481.198 126.8C484.932 121.333 486.798 112.467 486.798 100.2C486.798 90.6 485.865 83.2667 483.998 78.2C482.265 73.1333 479.865 69.7333 476.798 68C473.865 66.2667 470.132 65.4 465.598 65.4C458.132 65.4 450.198 67.7333 441.798 72.4V128.4C450.065 132.8 457.998 135 465.598 135ZM555.8 155.2C547.667 155.2 541.067 152.8 536 148C531.067 143.067 528.6 136.467 528.6 128.2V119.2C528.6 110.667 531.467 103.867 537.2 98.8C543.067 93.7333 551.733 91.2 563.2 91.2H593.8V81.8C593.8 77.8 593.133 74.6 591.8 72.2C590.467 69.8 588 68 584.4 66.8C580.8 65.4667 575.6 64.8 568.8 64.8H536.4V50.4C548.533 47.0667 562.533 45.4 578.4 45.4C592 45.4 602.067 48.0667 608.6 53.4C615.267 58.7333 618.6 67.6667 618.6 80.2V154H599.2L595 142.4C593.667 143.6 590.933 145.267 586.8 147.4C582.667 149.4 577.8 151.2 572.2 152.8C566.733 154.4 561.267 155.2 555.8 155.2ZM567.8 137.8C571.533 137.8 576.467 136.867 582.6 135C588.867 133 592.6 131.667 593.8 131V103L570.6 104.2C559 105.133 553.2 110.267 553.2 119.6V124C553.2 128.8 554.533 132.267 557.2 134.4C560 136.533 563.533 137.667 567.8 137.8ZM684.17 155.2C670.037 155.2 659.104 151.2 651.37 143.2C643.77 135.067 639.97 120.933 639.97 100.8C639.97 86.5333 641.704 75.4 645.17 67.4C648.637 59.2667 653.57 53.6 659.97 50.4C666.504 47.0667 674.77 45.4 684.77 45.4C697.57 45.4 709.77 46.8 721.37 49.6V63.8H692.17C685.504 63.8 680.17 64.8667 676.17 67C672.304 69 669.37 72.6667 667.37 78C665.504 83.3333 664.57 90.9333 664.57 100.8C664.57 110.533 665.504 118 667.37 123.2C669.37 128.267 672.304 131.733 676.17 133.6C680.17 135.467 685.57 136.4 692.37 136.4H722.97V150.4C717.77 151.733 711.637 152.867 704.57 153.8C697.637 154.733 690.837 155.2 684.17 155.2ZM741.217 1.40002H766.017V86H779.617L806.417 46.8H831.817L797.817 97.2L834.617 154H809.217L779.217 108.2H766.017V154H741.217V1.40002Z" fill="black"/>
</svg>
